<?xml version="1.0" encoding="utf-8"?>
<!-- Generator: Adobe Illustrator 26.0.1, SVG Export Plug-In . SVG Version: 6.00 Build 0)  -->
<svg version="1.1" id="Calque_1" xmlns="http://www.w3.org/2000/svg" xmlns:xlink="http://www.w3.org/1999/xlink" x="0px" y="0px"
	 viewBox="0 0 512 512" style="enable-background:new 0 0 512 512;" xml:space="preserve">
<style type="text/css">
	.st0{fill:#FD2D01;}
</style>
<path class="st0" d="M152,120c-26.5,0-48,21.5-48,48s21.5,48,48,48s48-21.5,48-48S178.5,120,152,120z M447.1,32h-384
	C28.6,32,0,60.7,0,96v320c0,35.4,28.6,64,63.1,64h384c35.4,0,64-28.6,64-64V96C511.1,60.7,483.3,32,447.1,32z M463.1,409.3
	L326.3,223.4c-2.5-4.6-8.2-7.4-14.3-7.4c-6.1,0-11.8,2.8-15.2,7.4L190.2,367.5l-37.1-46.1c-3.4-4.3-8.9-6.8-14.8-6.8
	c-5.8,0-11.3,2.5-14.8,6.8L48,415.2c0,0,0,0,0,0L48,96c0-8.8,7.2-16,16-16h384c8.8,0,16,7.2,16,16v313.3H463.1z"/>
</svg>
