<?xml version="1.0" encoding="utf-8"?>
<!-- Generator: Adobe Illustrator 26.0.1, SVG Export Plug-In . SVG Version: 6.00 Build 0)  -->
<svg version="1.1" id="Calque_1" xmlns="http://www.w3.org/2000/svg" xmlns:xlink="http://www.w3.org/1999/xlink" x="0px" y="0px"
	 viewBox="0 0 240.8 45.5" style="enable-background:new 0 0 240.8 45.5;" xml:space="preserve">
<style type="text/css">
	.st0{fill:#FD2D01;}
	.st1{fill:#FFD7D7;}
</style>
<g id="b5a93e15-ef7c-9d7a-680b-cdb17474f15f" transform="matrix(2.2,0,0,2.2,90.86749374866484,130.23299922943116)">
	<path class="st0" d="M-12.2-45.2L-12.2-45.2c-1.5,0-2.7-0.5-3.7-1.5l0,0l0,0c-1-1-1.5-2.2-1.5-3.7l0,0l0,0c0-1.4,0.5-2.7,1.5-3.6
		l0,0l0,0c1-1,2.2-1.5,3.7-1.5l0,0l0,0c1.5,0,2.7,0.5,3.8,1.4l0,0l-1.4,1.5l0,0c-0.7-0.5-1.5-0.8-2.4-0.8l0,0l0,0
		c-0.9,0-1.7,0.3-2.2,0.9l0,0l0,0c-0.6,0.6-0.8,1.3-0.8,2.2l0,0l0,0c0,1,0.3,1.7,0.9,2.3l0,0l0,0c0.6,0.6,1.3,0.8,2.2,0.8l0,0l0,0
		c0.7,0,1.3-0.1,1.7-0.4l0,0v-1.8l-1.4,0v-1.9h3.4v4.8l0,0C-9.5-45.7-10.7-45.2-12.2-45.2L-12.2-45.2z M-4.8-52.1v0.8l0,0
		C-4.3-51.8-3.7-52-3-52l0,0l0,0c0.2,0,0.4,0,0.6,0l0,0l-0.3,1.9l0,0c-0.2-0.2-0.5-0.3-0.9-0.3l0,0l0,0c-0.5,0-0.9,0.4-1.2,1l0,0
		v4.2h-1.9v-6.6L-4.8-52.1z M2-45.1L2-45.1c-1,0-1.8-0.3-2.5-1l0,0l0,0c-0.7-0.7-1-1.5-1-2.5l0,0l0,0c0-1,0.3-1.8,1-2.5l0,0l0,0
		c0.7-0.7,1.5-1,2.5-1l0,0l0,0c1,0,1.8,0.3,2.5,1l0,0l0,0c0.7,0.7,1,1.5,1,2.5l0,0l0,0c0,1-0.3,1.8-1,2.5l0,0l0,0
		C3.8-45.5,3-45.1,2-45.1L2-45.1z M2-46.8L2-46.8L2-46.8c0.5,0,0.9-0.2,1.3-0.5l0,0l0,0c0.3-0.3,0.5-0.8,0.5-1.3l0,0l0,0
		c0-0.5-0.2-1-0.5-1.3l0,0l0,0c-0.3-0.4-0.8-0.5-1.3-0.5l0,0l0,0c-0.5,0-0.9,0.2-1.3,0.5l0,0l0,0c-0.3,0.3-0.5,0.8-0.5,1.3l0,0l0,0
		c0,0.5,0.2,1,0.5,1.3l0,0l0,0C1.1-47,1.5-46.8,2-46.8z M10.9-47.6L10.9-47.6v-4.4h1.9v6.8h-1.9v-0.6l0,0c-0.5,0.4-1,0.6-1.6,0.6
		l0,0l0,0c-0.9,0-1.5-0.3-2-0.8l0,0l0,0c-0.5-0.5-0.7-1.1-0.7-1.8l0,0v-4.2h1.9v3.8l0,0c0,0.5,0.1,0.8,0.3,1.1l0,0l0,0
		c0.2,0.3,0.6,0.4,1,0.4l0,0l0,0C10.3-46.9,10.6-47.1,10.9-47.6z M16.4-42.3l-1.9,0v-9.5l1.9-0.2v0.5l0,0c0.5-0.4,1-0.5,1.5-0.5l0,0
		l0,0c1,0,1.9,0.3,2.5,1l0,0l0,0c0.6,0.7,0.9,1.5,0.9,2.4l0,0l0,0c0,0.9-0.3,1.7-0.9,2.4l0,0l0,0c-0.6,0.7-1.4,1-2.5,1l0,0l0,0
		c-0.7,0-1.2-0.2-1.5-0.6l0,0V-42.3z M16.4-49.3L16.4-49.3v1.1l0,0c0.1,0.8,0.6,1.2,1.4,1.3l0,0l0,0c1.1-0.1,1.7-0.7,1.8-1.7l0,0
		l0,0c0-1.3-0.7-1.9-1.8-2l0,0l0,0C16.9-50.3,16.5-49.9,16.4-49.3z M25.8-45.1L25.8-45.1c-1,0-1.8-0.3-2.5-1l0,0l0,0
		c-0.7-0.7-1-1.5-1-2.5l0,0l0,0c0-1,0.3-1.8,1-2.5l0,0l0,0c0.7-0.7,1.5-1,2.5-1l0,0l0,0c1,0,1.8,0.3,2.5,1l0,0l0,0
		c0.7,0.7,1,1.5,1,2.5l0,0l0,0c0,1-0.3,1.8-1,2.5l0,0l0,0C27.6-45.5,26.7-45.1,25.8-45.1L25.8-45.1z M25.8-46.8L25.8-46.8L25.8-46.8
		c0.5,0,0.9-0.2,1.3-0.5l0,0l0,0c0.3-0.3,0.5-0.8,0.5-1.3l0,0l0,0c0-0.5-0.2-1-0.5-1.3l0,0l0,0c-0.3-0.4-0.7-0.5-1.3-0.5l0,0l0,0
		c-0.5,0-0.9,0.2-1.3,0.5l0,0l0,0c-0.3,0.3-0.5,0.8-0.5,1.3l0,0l0,0c0,0.5,0.2,1,0.5,1.3l0,0l0,0C24.8-47,25.2-46.8,25.8-46.8z
		 M32.4-49.6L32.4-49.6v4.4h-1.9v-6.6l1.9-0.2v0.6l0,0c0.4-0.4,1-0.6,1.6-0.6l0,0l0,0c0.9,0,1.5,0.3,2,0.8l0,0l0,0
		c0.5-0.5,1.3-0.8,2.2-0.8l0,0l0,0c0.9,0,1.5,0.3,2,0.8l0,0l0,0c0.5,0.5,0.7,1.1,0.7,1.8l0,0v4.2h-1.9V-49l0,0
		c0-0.5-0.1-0.8-0.3-1.1l0,0l0,0c-0.2-0.2-0.5-0.4-1-0.4l0,0l0,0c-0.4,0-0.7,0.3-1,0.8l0,0l0,0c0,0.1,0,0.3,0,0.4l0,0v4h-1.9V-49
		l0,0c0-0.5-0.1-0.8-0.3-1.1l0,0l0,0c-0.2-0.2-0.5-0.4-1-0.4l0,0l0,0C33.1-50.4,32.7-50.1,32.4-49.6z M43.5-50.1l-0.8-1.2l0,0
		c0.9-0.5,1.9-0.8,3-0.8l0,0l0,0c0.8,0,1.5,0.2,1.9,0.7l0,0l0,0c0.5,0.5,0.7,1.1,0.7,2l0,0v4.1h-1.9v-0.5l0,0
		c-0.6,0.4-1.1,0.5-1.5,0.5l0,0l0,0c-0.9,0-1.6-0.2-2-0.6l0,0l0,0c-0.5-0.4-0.7-0.9-0.7-1.6l0,0l0,0c0-0.6,0.2-1.2,0.7-1.7l0,0l0,0
		c0.4-0.5,1.1-0.8,2.1-0.8l0,0l0,0c0.4,0,1,0.1,1.5,0.4l0,0v-0.2l0,0c0-0.5-0.4-0.8-1.1-0.8l0,0l0,0C44.6-50.5,44-50.3,43.5-50.1
		L43.5-50.1z M46.6-47.3L46.6-47.3V-48l0,0c-0.2-0.4-0.6-0.5-1.3-0.5l0,0l0,0c-0.8,0.1-1.3,0.4-1.3,1l0,0l0,0c0,0.5,0.5,0.8,1.3,0.9
		l0,0l0,0C45.9-46.7,46.4-46.9,46.6-47.3z M52.1-49.6L52.1-49.6v4.3h-1.9v-6.6l1.9-0.2v0.6l0,0c0.5-0.4,1-0.6,1.6-0.6l0,0l0,0
		c0.9,0,1.5,0.3,2,0.8l0,0l0,0c0.5,0.5,0.7,1.1,0.7,1.8l0,0v4.2h-1.9V-49l0,0c0-0.5-0.1-0.8-0.3-1.1l0,0l0,0c-0.2-0.2-0.6-0.4-1-0.4
		l0,0l0,0C52.7-50.4,52.4-50.1,52.1-49.6z M59.9-45.2H58v-6.8h1.9V-45.2z M57.9-53.7L57.9-53.7L57.9-53.7c0,0.3,0.1,0.5,0.3,0.7l0,0
		l0,0c0.2,0.2,0.4,0.3,0.8,0.3l0,0l0,0c0.3,0,0.6-0.1,0.8-0.3l0,0l0,0c0.2-0.2,0.3-0.4,0.3-0.7l0,0l0,0c0-0.3-0.1-0.5-0.3-0.7l0,0
		l0,0c-0.2-0.2-0.4-0.3-0.8-0.3l0,0l0,0c-0.3,0-0.6,0.1-0.7,0.3l0,0l0,0C58-54.2,57.9-54,57.9-53.7z M62.5-50.1l-0.8-1.2l0,0
		c0.9-0.5,1.9-0.8,3-0.8l0,0l0,0c0.8,0,1.5,0.2,1.9,0.7l0,0l0,0c0.5,0.5,0.7,1.1,0.7,2l0,0v4.1h-1.9v-0.5l0,0
		c-0.6,0.4-1.1,0.5-1.5,0.5l0,0l0,0c-0.9,0-1.6-0.2-2.1-0.6l0,0l0,0c-0.5-0.4-0.7-0.9-0.7-1.6l0,0l0,0c0-0.6,0.2-1.2,0.7-1.7l0,0
		l0,0c0.4-0.5,1.1-0.8,2.1-0.8l0,0l0,0c0.4,0,0.9,0.1,1.5,0.4l0,0v-0.2l0,0c0-0.5-0.4-0.8-1.1-0.8l0,0l0,0
		C63.6-50.5,62.9-50.3,62.5-50.1L62.5-50.1z M65.5-47.3L65.5-47.3V-48l0,0c-0.2-0.4-0.6-0.5-1.3-0.5l0,0l0,0c-0.8,0.1-1.3,0.4-1.3,1
		l0,0l0,0c0,0.5,0.5,0.8,1.3,0.9l0,0l0,0C64.9-46.7,65.3-46.9,65.5-47.3z"/>
</g>
<g id="_x39_269873b-566f-aa23-fe77-697bbc54db67" transform="matrix(0.17276311525438642,0,0,0.17276311525438642,35.75002377601375,124.08554457454373)">
	<g>
		<path class="st1" d="M-74.1-461.7c33.6,0,65.1-12.9,88.8-36.6c23.7-23.7,36.6-55.2,36.6-88.8s-12.9-65.1-36.6-88.8
			c-23.7-23.7-55.2-36.6-88.8-36.6s-65.1,12.9-88.8,36.6c-23.7,23.7-36.6,55.2-36.6,88.8c0,33.6,12.9,65.1,36.6,88.8
			S-107.7-461.7-74.1-461.7z M-66.9-483c-2.4,0.3-4.8,0.3-7.2,0.3c-3.3,0-6.6-0.3-9.9-0.6c-10.8-16.8-18.9-34.8-23.7-53.7h53.1
			c1.8,4.5,5.1,8.7,9,11.4C-50.7-510.6-57.9-496.5-66.9-483z M-38.4-489c5.7-10.5,10.2-21,13.8-32.1c8.7-1.8,15.6-7.8,18.9-15.9
			h23.1C5.4-515.1-14.7-498-38.4-489z M30-587.1c0,9.9-1.5,19.5-3.9,28.8H-6.3c-1.8-3.9-4.8-7.5-8.4-10.2c0.6-6.6,0.9-13.2,0.9-19.8
			c0-9.3-0.6-18.6-1.8-27.6h41.4C28.8-606.9,30-597,30-587.1z M17.4-637.2h-36.6c-3.9-16.5-9.6-32.1-17.4-47.1
			C-13.8-675.6,5.4-658.5,17.4-637.2z M-34.8-588.3c0,5.1-0.3,10.2-0.6,15.3c-8.4,1.8-15.3,7.2-18.6,14.7h-57.9
			c-1.2-9-2.1-18.3-2.1-27.3c0-5.7,0.3-11.4,0.9-17.1c7.8-1.5,14.1-6.6,18-13.2h58.5C-35.4-606.9-34.8-597.6-34.8-588.3z
			 M-81.9-690.9c2.7-0.3,5.4-0.3,7.8-0.3c3,0,6,0,9,0.3c10.8,16.8,18.9,34.8,23.7,53.7h-52.2c-1.8-5.1-5.1-9.6-9.3-12.9
			C-97.5-664.5-90.6-678-81.9-690.9z M-110.4-684.9c-5.1,9.6-9.6,19.8-13.2,30c-9.3,1.8-16.8,8.7-19.8,17.4h-21.9
			C-153.6-658.8-134.1-675.9-110.4-684.9z M-178.2-587.1c0-9.9,1.5-19.8,4.2-28.8h32.7c1.8,3.3,4.5,6.3,7.5,8.7
			c-0.6,7.2-1.2,14.4-1.2,21.6c0,9.3,0.6,18.3,1.8,27.3H-174C-177-567.6-178.2-577.2-178.2-587.1z M-129.6-537.3
			c3.9,16.2,9.6,32.1,17.4,47.1c-22.8-9-41.7-25.8-53.4-47.1H-129.6z"/>
	</g>
</g>
</svg>
