<?xml version="1.0" encoding="utf-8"?>
<!-- Generator: Adobe Illustrator 26.0.1, SVG Export Plug-In . SVG Version: 6.00 Build 0)  -->
<svg version="1.1" id="Calque_1" xmlns="http://www.w3.org/2000/svg" xmlns:xlink="http://www.w3.org/1999/xlink" x="0px" y="0px"
	 viewBox="0 0 43.3 43.3" style="enable-background:new 0 0 43.3 43.3;" xml:space="preserve">
<style type="text/css">
	.st0{fill:#fd8484;}
</style>
<g id="_x39_269873b-566f-aa23-fe77-697bbc54db67" transform="matrix(0.17276311525438642,0,0,0.17276311525438642,35.75002377601375,124.08554457454373)">
	<g>
		<path class="st0" d="M-81.5-467.4c33.6,0,65.1-12.9,88.8-36.6s36.6-55.2,36.6-88.8c0-33.6-12.9-65.1-36.6-88.8
			s-55.2-36.6-88.8-36.6s-65.1,12.9-88.8,36.6c-23.7,23.7-36.6,55.2-36.6,88.8c0,33.6,12.9,65.1,36.6,88.8S-115.1-467.4-81.5-467.4z
			 M-74.3-488.7c-2.4,0.3-4.8,0.3-7.2,0.3c-3.3,0-6.6-0.3-9.9-0.6c-10.8-16.8-18.9-34.8-23.7-53.7H-62c1.8,4.5,5.1,8.7,9,11.4
			C-58.1-516.3-65.3-502.2-74.3-488.7z M-45.8-494.7c5.7-10.5,10.2-21,13.8-32.1c8.7-1.8,15.6-7.8,18.9-15.9H10
			C-2-520.8-22.1-503.7-45.8-494.7z M22.6-592.8c0,9.9-1.5,19.5-3.9,28.8h-32.4c-1.8-3.9-4.8-7.5-8.4-10.2
			c0.6-6.6,0.9-13.2,0.9-19.8c0-9.3-0.6-18.6-1.8-27.6h41.4C21.4-612.6,22.6-602.7,22.6-592.8z M10-642.9h-36.6
			C-30.5-659.4-36.2-675-44-690C-21.2-681.3-2-664.2,10-642.9z M-42.2-594c0,5.1-0.3,10.2-0.6,15.3c-8.4,1.8-15.3,7.2-18.6,14.7
			h-57.9c-1.2-9-2.1-18.3-2.1-27.3c0-5.7,0.3-11.4,0.9-17.1c7.8-1.5,14.1-6.6,18-13.2H-44C-42.8-612.6-42.2-603.3-42.2-594z
			 M-89.3-696.6c2.7-0.3,5.4-0.3,7.8-0.3c3,0,6,0,9,0.3c10.8,16.8,18.9,34.8,23.7,53.7H-101c-1.8-5.1-5.1-9.6-9.3-12.9
			C-104.9-670.2-98-683.7-89.3-696.6z M-117.8-690.6c-5.1,9.6-9.6,19.8-13.2,30c-9.3,1.8-16.8,8.7-19.8,17.4h-21.9
			C-161-664.5-141.5-681.6-117.8-690.6z M-185.6-592.8c0-9.9,1.5-19.8,4.2-28.8h32.7c1.8,3.3,4.5,6.3,7.5,8.7
			c-0.6,7.2-1.2,14.4-1.2,21.6c0,9.3,0.6,18.3,1.8,27.3h-40.8C-184.4-573.3-185.6-582.9-185.6-592.8z M-137-543
			c3.9,16.2,9.6,32.1,17.4,47.1c-22.8-9-41.7-25.8-53.4-47.1H-137z"/>
	</g>
</g>
</svg>
