<?xml version="1.0" encoding="utf-8"?>
<!-- Generator: Adobe Illustrator 26.0.1, SVG Export Plug-In . SVG Version: 6.00 Build 0)  -->
<svg version="1.1" id="Calque_1" xmlns="http://www.w3.org/2000/svg" xmlns:xlink="http://www.w3.org/1999/xlink" x="0px" y="0px"
	 viewBox="0 0 194.5 43.3" style="enable-background:new 0 0 194.5 43.3;" xml:space="preserve">
<style type="text/css">
	.st0{fill:#FD2D01;}
</style>
<g id="b5a93e15-ef7c-9d7a-680b-cdb17474f15f" transform="matrix(2.2,0,0,2.2,90.86749374866484,130.23299922943116)">
	<path class="st0" d="M-32.5-45.7L-32.5-45.7c-1.5,0-2.7-0.5-3.7-1.5l0,0l0,0c-1-1-1.5-2.2-1.5-3.7l0,0l0,0c0-1.4,0.5-2.7,1.5-3.6
		l0,0l0,0c1-1,2.2-1.5,3.7-1.5l0,0l0,0c1.5,0,2.7,0.5,3.8,1.4l0,0l-1.4,1.5l0,0c-0.7-0.5-1.5-0.8-2.4-0.8l0,0l0,0
		c-0.9,0-1.7,0.3-2.2,0.9l0,0l0,0c-0.6,0.6-0.8,1.3-0.8,2.2l0,0l0,0c0,1,0.3,1.7,0.9,2.3l0,0l0,0c0.6,0.6,1.3,0.8,2.2,0.8l0,0l0,0
		c0.7,0,1.3-0.1,1.7-0.4l0,0v-1.8h-1.4v-1.9h3.4v4.8l0,0C-29.8-46.1-31-45.7-32.5-45.7L-32.5-45.7z M-25-52.5v0.8l0,0
		c0.5-0.5,1.1-0.8,1.8-0.8l0,0l0,0c0.2,0,0.4,0,0.6,0l0,0l-0.3,1.9l0,0c-0.2-0.2-0.5-0.3-0.9-0.3l0,0l0,0c-0.5,0-0.9,0.4-1.2,1l0,0
		v4.2h-1.9v-6.6L-25-52.5z M-18.3-45.6L-18.3-45.6c-1,0-1.8-0.3-2.5-1l0,0l0,0c-0.7-0.7-1-1.5-1-2.5l0,0l0,0c0-1,0.3-1.8,1-2.5l0,0
		l0,0c0.7-0.7,1.5-1,2.5-1l0,0l0,0c1,0,1.8,0.3,2.5,1l0,0l0,0c0.7,0.7,1,1.5,1,2.5l0,0l0,0c0,1-0.3,1.8-1,2.5l0,0l0,0
		C-16.4-45.9-17.3-45.6-18.3-45.6L-18.3-45.6z M-18.3-47.2L-18.3-47.2L-18.3-47.2c0.5,0,0.9-0.2,1.3-0.5l0,0l0,0
		c0.3-0.3,0.5-0.8,0.5-1.3l0,0l0,0c0-0.5-0.2-1-0.5-1.3l0,0l0,0c-0.3-0.4-0.7-0.5-1.3-0.5l0,0l0,0c-0.5,0-0.9,0.2-1.3,0.5l0,0l0,0
		c-0.3,0.3-0.5,0.8-0.5,1.3l0,0l0,0c0,0.5,0.2,1,0.5,1.3l0,0l0,0C-19.2-47.4-18.8-47.2-18.3-47.2z M-9.4-48.1L-9.4-48.1v-4.4h1.9
		v6.8h-1.9v-0.6l0,0c-0.5,0.4-1,0.6-1.6,0.6l0,0l0,0c-0.9,0-1.5-0.3-2-0.8l0,0l0,0c-0.4-0.5-0.7-1.1-0.7-1.8l0,0v-4.2h1.9v3.8l0,0
		c0,0.5,0.1,0.8,0.3,1.1l0,0l0,0c0.2,0.3,0.6,0.4,1,0.4l0,0l0,0C-10-47.3-9.6-47.6-9.4-48.1z M-3.9-42.8h-1.9v-9.5l1.9-0.2v0.6l0,0
		c0.5-0.4,1-0.6,1.5-0.6l0,0l0,0c1,0,1.9,0.3,2.5,1l0,0l0,0C0.7-50.8,1-50,1-49.1l0,0l0,0c0,0.9-0.3,1.7-0.9,2.4l0,0l0,0
		c-0.6,0.7-1.4,1-2.5,1l0,0l0,0c-0.7,0-1.2-0.2-1.5-0.6l0,0C-3.9-46.3-3.9-42.8-3.9-42.8z M-3.9-49.7L-3.9-49.7v1.1l0,0
		c0.1,0.8,0.6,1.2,1.4,1.3l0,0l0,0c1.1-0.1,1.7-0.7,1.8-1.7l0,0l0,0c0-1.3-0.7-1.9-1.8-2l0,0l0,0C-3.3-50.8-3.8-50.4-3.9-49.7z
		 M5.5-45.6L5.5-45.6c-1,0-1.8-0.3-2.5-1l0,0l0,0c-0.7-0.7-1-1.5-1-2.5l0,0l0,0c0-1,0.3-1.8,1-2.5l0,0l0,0c0.7-0.7,1.5-1,2.5-1l0,0
		l0,0c1,0,1.8,0.3,2.5,1l0,0l0,0c0.7,0.7,1,1.5,1,2.5l0,0l0,0c0,1-0.3,1.8-1,2.5l0,0l0,0C7.3-45.9,6.5-45.6,5.5-45.6L5.5-45.6z
		 M5.5-47.2L5.5-47.2L5.5-47.2c0.5,0,0.9-0.2,1.3-0.5l0,0l0,0C7.1-48,7.3-48.5,7.3-49l0,0l0,0c0-0.5-0.2-1-0.5-1.3l0,0l0,0
		c-0.3-0.4-0.7-0.5-1.3-0.5l0,0l0,0c-0.5,0-0.9,0.2-1.3,0.5l0,0l0,0C3.9-50,3.7-49.5,3.7-49l0,0l0,0c0,0.5,0.2,1,0.5,1.3l0,0l0,0
		C4.5-47.4,4.9-47.2,5.5-47.2z M12.1-50L12.1-50v4.4h-1.9v-6.6l1.9-0.2v0.6l0,0c0.4-0.4,1-0.6,1.6-0.6l0,0l0,0c0.9,0,1.5,0.3,2,0.8
		l0,0l0,0c0.5-0.5,1.3-0.8,2.2-0.8l0,0l0,0c0.9,0,1.5,0.3,2,0.8l0,0l0,0c0.5,0.5,0.7,1.1,0.7,1.8l0,0v4.2h-1.9v-3.8l0,0
		c0-0.5-0.1-0.8-0.3-1.1l0,0l0,0c-0.2-0.2-0.5-0.4-1-0.4l0,0l0,0c-0.4,0-0.7,0.3-1,0.8l0,0l0,0c0,0.1,0,0.3,0,0.4l0,0v4h-1.9v-3.8
		l0,0c0-0.5-0.1-0.8-0.3-1.1l0,0l0,0c-0.2-0.2-0.5-0.4-1-0.4l0,0l0,0C12.8-50.8,12.4-50.6,12.1-50z M23.3-50.5l-0.8-1.2l0,0
		c0.9-0.5,1.9-0.8,3-0.8l0,0l0,0c0.8,0,1.5,0.2,1.9,0.7l0,0l0,0c0.5,0.5,0.7,1.1,0.7,2l0,0v4.1h-1.8v-0.5l0,0
		c-0.6,0.4-1.1,0.5-1.5,0.5l0,0l0,0c-0.9,0-1.6-0.2-2.1-0.6l0,0l0,0c-0.5-0.4-0.7-0.9-0.7-1.6l0,0l0,0c0-0.6,0.2-1.2,0.7-1.7l0,0
		l0,0c0.4-0.5,1.1-0.8,2.1-0.8l0,0l0,0c0.4,0,1,0.1,1.5,0.4l0,0v-0.2l0,0c0-0.5-0.4-0.8-1.1-0.8l0,0l0,0
		C24.3-50.9,23.7-50.8,23.3-50.5L23.3-50.5z M26.3-47.7L26.3-47.7v-0.8l0,0C26.1-48.9,25.7-49,25-49l0,0l0,0c-0.8,0.1-1.3,0.4-1.3,1
		l0,0l0,0c0,0.5,0.5,0.8,1.3,0.9l0,0l0,0C25.7-47.2,26.1-47.4,26.3-47.7z M31.8-50L31.8-50v4.3h-1.9v-6.6l1.9-0.2v0.6l0,0
		c0.5-0.4,1-0.6,1.6-0.6l0,0l0,0c0.9,0,1.5,0.3,2,0.8l0,0l0,0c0.5,0.5,0.7,1.1,0.7,1.8l0,0v4.2h-1.9v-3.8l0,0c0-0.5-0.1-0.8-0.3-1.1
		l0,0l0,0c-0.2-0.2-0.6-0.4-1-0.4l0,0l0,0C32.4-50.8,32.1-50.6,31.8-50z M39.6-45.7h-1.9v-6.8h1.9V-45.7z M37.6-54.1L37.6-54.1
		L37.6-54.1c0,0.3,0.1,0.5,0.3,0.7l0,0l0,0c0.2,0.2,0.4,0.3,0.8,0.3l0,0l0,0c0.3,0,0.6-0.1,0.8-0.3l0,0l0,0c0.2-0.2,0.3-0.4,0.3-0.7
		l0,0l0,0c0-0.3-0.1-0.5-0.3-0.7l0,0l0,0c-0.2-0.2-0.4-0.3-0.8-0.3l0,0l0,0c-0.3,0-0.6,0.1-0.7,0.3l0,0l0,0
		C37.7-54.6,37.6-54.4,37.6-54.1z M42.2-50.5l-0.8-1.2l0,0c0.9-0.5,1.9-0.8,3-0.8l0,0l0,0c0.8,0,1.5,0.2,1.9,0.7l0,0l0,0
		c0.5,0.5,0.7,1.1,0.7,2l0,0v4.1h-1.9v-0.5l0,0c-0.6,0.4-1.1,0.5-1.5,0.5l0,0l0,0c-0.9,0-1.6-0.2-2.1-0.6l0,0l0,0
		c-0.5-0.4-0.7-0.9-0.7-1.6l0,0l0,0c0-0.6,0.2-1.2,0.7-1.7l0,0l0,0c0.4-0.5,1.1-0.8,2.1-0.8l0,0l0,0c0.4,0,0.9,0.1,1.5,0.4l0,0v-0.2
		l0,0c0-0.5-0.4-0.8-1.1-0.8l0,0l0,0C43.3-50.9,42.6-50.8,42.2-50.5L42.2-50.5z M45.2-47.7L45.2-47.7v-0.8l0,0
		C45-48.9,44.6-49,43.9-49l0,0l0,0c-0.8,0.1-1.3,0.4-1.3,1l0,0l0,0c0,0.5,0.5,0.8,1.3,0.9l0,0l0,0C44.6-47.2,45-47.4,45.2-47.7z"/>
</g>
</svg>
